HIERARCHY
ROOT Hips
{
	OFFSET 0.00000 0.00000 0.00000
	CHANNELS 6 Xposition Yposition Zposition Zrotation Yrotation Xrotation 
	JOINT LHipJoint
	{
		OFFSET 0 0 0
		CHANNELS 3 Zrotation Yrotation Xrotation
		JOINT LeftHip
		{
			OFFSET 1.61328 -1.70571 0.84375
			CHANNELS 3 Zrotation Yrotation Xrotation
			JOINT LeftKnee
			{
				OFFSET 2.32400 -6.38513 0.00000
				CHANNELS 3 Zrotation Yrotation Xrotation
				JOINT LeftAnkle
				{
					OFFSET 2.58843 -7.11166 0.00000
					CHANNELS 3 Zrotation Yrotation Xrotation
					JOINT LeftToe
					{
						OFFSET 0.17200 -0.47257 2.47970
						CHANNELS 3 Zrotation Yrotation Xrotation
						End Site
						{
							OFFSET 0.00000 -0.00000 1.26912
						}
					}
				}
			}
		}
	}
	JOINT RHipJoint
	{
		OFFSET 0 0 0
		CHANNELS 3 Zrotation Yrotation Xrotation
		JOINT RightHip
		{
			OFFSET -1.49930 -1.70570 0.84375
			CHANNELS 3 Zrotation Yrotation Xrotation
			JOINT RightKnee
			{
				OFFSET -2.30458 -6.33178 0.00000
				CHANNELS 3 Zrotation Yrotation Xrotation
				JOINT RightAnkle
				{
					OFFSET -2.62261 -7.20556 0.00000
					CHANNELS 3 Zrotation Yrotation Xrotation
					JOINT RightToe
					{
						OFFSET -0.18709 -0.51403 2.51340
						CHANNELS 3 Zrotation Yrotation Xrotation
						End Site
						{
							OFFSET -0.00000 -0.00000 1.28858
						}
					}
				}
			}
		}
	}
	JOINT lowerback
	{
		OFFSET 0 0 0
		CHANNELS 3 Zrotation Yrotation Xrotation
		JOINT Chest
		{
			OFFSET -0.03798 2.19274 -0.19881
			CHANNELS 3 Zrotation Yrotation Xrotation
			JOINT Chest2
			{
				OFFSET -0.00024 2.19460 0.05248
				CHANNELS 3 Zrotation Yrotation Xrotation
				JOINT lowerneck
				{
					OFFSET 0 0 0
					CHANNELS 3 Zrotation Yrotation Xrotation
					JOINT Neck
					{
						OFFSET -0.00746 1.82323 0.17286
						CHANNELS 3 Zrotation Yrotation Xrotation
						JOINT Head
						{
							OFFSET 0.11826 1.82121 -0.27841
							CHANNELS 3 Zrotation Yrotation Xrotation
							End Site
							{
								OFFSET 0.03496 1.85543 -0.11495
							}
						}
					}
				}
				JOINT LeftCollar
				{
					OFFSET 0 0 0
					CHANNELS 3 Zrotation Yrotation Xrotation
					JOINT LeftShoulder
					{
						OFFSET 3.71926 0.78840 0.25473
CHANNELS 3 Zrotation Xrotation Yrotation
						JOINT LeftElbow
						{
OFFSET 0 -5.375870 0.000000
CHANNELS 3 Zrotation Xrotation Yrotation
							JOINT LeftWrist
							{
OFFSET 0 -3.359770 0.000000
CHANNELS 3 Zrotation Xrotation Yrotation
								JOINT lhand
								{
									OFFSET 0 0 0
CHANNELS 3 Zrotation Xrotation Yrotation
									JOINT LFingers
									{
OFFSET 0 -0.561860 0.000000
CHANNELS 3 Zrotation Xrotation Yrotation
										End Site
										{
OFFSET 0 -0.452990 0.000000
										}
									}
								}
								JOINT LThumb
								{
OFFSET 0 0.000000 0.000000
CHANNELS 3 Zrotation Xrotation Yrotation
									End Site
									{
OFFSET 0 -0.459900 0.459900
									}
								}
							}
						}
					}
				}
				JOINT RightCollar
				{
					OFFSET 0 0 0
					CHANNELS 3 Zrotation Yrotation Xrotation
					JOINT RightShoulder
					{
						OFFSET -3.65136 0.56074 0.01624
CHANNELS 3 Zrotation Xrotation Yrotation
						JOINT RightElbow
						{
OFFSET 0 -5.228190 0.000000
CHANNELS 3 Zrotation Xrotation Yrotation
							JOINT RightWrist
							{
OFFSET 0 -3.407640 0.000000
CHANNELS 3 Zrotation Xrotation Yrotation
								JOINT rhand
								{
									OFFSET 0 0 0
CHANNELS 3 Zrotation Xrotation Yrotation
									JOINT RFingers
									{
OFFSET 0 -0.583250 0.000000
CHANNELS 3 Zrotation Xrotation Yrotation
										End Site
										{
OFFSET 0 -0.470240 0.000000
										}
									}
								}
								JOINT RThumb
								{
OFFSET 0 0.000000 0.000000
CHANNELS 3 Zrotation Xrotation Yrotation
									End Site
									{
OFFSET 0 -0.477420 0.477420
									}
								}
							}
						}
					}
				}
			}
		}
	}
}
MOTION
Frames: 12
Frame Time: 0.008333333333333333
49.460700 16.415800 -8.039900 -14.694200 -83.418700 16.971200 0.000000 0.000000 0.000000 -18.004300 3.757900 -27.372700 6.345600 14.755100 46.353500 0.550900 -8.560400 -13.644300 0.575200 -4.857000 -13.501000 0.000000 0.000000 0.000000 22.847500 3.212500 -17.482000 -4.332100 -12.589700 37.851400 -2.888300 8.402300 -30.711800 -3.271800 -11.122600 32.694500 -0.917800 -1.550400 2.958200 0.511700 -2.235900 6.002900 1.011200 -1.232000 4.593200 -9.450800 -10.512900 3.616400 9.746500 -14.193900 -4.211300 4.433900 -7.192100 -0.448600 -0.000000 0.000000 0.000000 2.492000 -9.162300 -35.143000 13.473500 -21.977100 2.627800 25.162100 -2.588600 -17.788200 0.000000 0.000000 0.000000 -7.125000 0.000000 0.000000 -2.820300 49.477200 0.311600 -0.000000 0.000000 0.000000 -5.188000 4.702700 34.637200 -17.632500 -27.684100 -4.377200 -21.852400 -9.410100 -4.572100 0.000000 0.000000 0.000000 7.125000 0.000000 -0.000000 3.606100 25.054900 1.742900
49.424762 16.423098 -8.049064 -15.061368 -83.449881 17.146836 0.000000 0.000000 0.000000 -17.562454 3.118433 -28.097385 6.567856 14.956878 47.220211 0.699747 -6.516534 -14.945842 0.934623 -6.153738 -17.232495 0.000000 0.000000 0.000000 22.972469 3.122950 -16.937114 -4.249197 -12.484857 37.469431 -2.853703 8.784918 -30.499446 -0.667406 -5.199522 14.484105 -0.783818 -1.536274 2.887934 0.665362 -2.223116 6.014826 1.092625 -1.224217 4.646287 -9.355911 -10.575061 3.766571 9.739666 -14.268922 -4.581865 4.440144 -7.234688 -0.582104 0.000000 0.000000 0.000000 2.246198 -8.349542 -34.104470 12.832415 -21.040957 2.392896 27.155284 -1.804120 -17.607315 0.000000 0.000000 0.000000 -7.125000 0.000000 0.000000 -0.820052 49.608149 0.092889 0.000000 0.000000 0.000000 -5.109998 4.521189 33.887886 -16.811925 -26.608802 -4.002909 -21.425287 -8.493786 -4.489346 0.000000 0.000000 0.000000 7.125000 0.000000 0.000000 3.927792 25.157854 1.889622
49.375963 16.441855 -8.048387 -14.543412 -83.594041 16.489109 0.000000 0.000000 0.000000 -17.307904 2.462293 -28.374930 6.502809 14.898492 46.967701 0.795689 -4.136626 -15.969158 1.381155 -7.435312 -21.012072 0.000000 0.000000 0.000000 22.916662 2.969400 -16.319806 -4.134999 -12.337868 36.938136 -2.799978 9.370728 -30.177595 -0.673753 -5.248522 14.618859 -0.735576 -1.522475 2.785399 0.746880 -2.204304 5.953161 1.148145 -1.213237 4.640395 -9.274041 -10.615202 3.887209 9.686362 -14.320917 -4.774096 4.427030 -7.263162 -0.663226 0.000000 0.000000 0.000000 2.012868 -7.447910 -32.706983 12.221501 -20.135887 2.178043 28.338570 -1.806923 -17.553111 0.000000 0.000000 0.000000 -7.125000 0.000000 0.000000 0.363744 49.747236 -0.042576 0.000000 0.000000 0.000000 -5.021999 4.485081 33.121509 -16.115450 -25.676897 -3.695954 -21.153852 -7.774593 -4.442438 0.000000 0.000000 0.000000 7.125000 0.000000 0.000000 4.132390 25.216670 1.982906
49.317562 16.465775 -8.041089 -13.278371 -83.873480 15.131699 0.000000 0.000000 0.000000 -17.201280 1.766467 -28.231578 6.185446 14.605321 45.720893 0.841784 -2.287914 -16.715594 1.611476 -8.005000 -22.729236 0.000000 0.000000 0.000000 22.721540 2.872651 -15.647268 -4.010930 -12.174889 36.353527 -2.762170 9.767951 -29.957052 -0.732443 -5.467792 15.247690 -0.762073 -1.469377 2.633153 0.745292 -2.128183 5.873588 1.159309 -1.174054 4.641790 -9.202460 -10.644235 3.856938 9.696207 -14.353418 -4.780370 4.417093 -7.280027 -0.661461 0.000000 0.000000 0.000000 1.912880 -6.638132 -31.315294 11.609757 -19.216607 1.972072 28.329297 -2.119114 -17.661818 0.000000 0.000000 0.000000 -7.125000 0.000000 0.000000 0.336882 49.865895 -0.040393 0.000000 0.000000 0.000000 -4.871354 4.499728 32.313474 -15.548775 -24.904874 -3.453856 -21.010074 -7.239646 -4.446904 0.000000 0.000000 0.000000 7.125000 0.000000 0.000000 4.240394 25.216535 2.035018
49.250610 16.488873 -8.026769 -11.531120 -84.297987 13.332348 0.000000 0.000000 0.000000 -17.192530 1.053052 -27.759283 5.697927 14.128484 43.755891 0.889472 -1.561561 -17.363324 1.416356 -7.525741 -21.283078 0.000000 0.000000 0.000000 22.414449 2.791652 -15.015017 -3.897921 -12.023349 35.814610 -2.718664 9.988798 -29.709310 -0.732737 -5.468993 15.251315 -0.832764 -1.393653 2.399775 0.687078 -2.018745 5.802518 1.135023 -1.118739 4.696419 -9.146130 -10.640504 3.750652 9.750829 -14.336669 -4.787532 4.418821 -7.272020 -0.647764 0.000000 0.000000 0.000000 1.984438 -5.837311 -30.690011 11.168888 -18.546551 1.829244 27.952807 -3.412912 -17.912705 0.000000 0.000000 0.000000 -7.125000 0.000000 0.000000 -0.081227 50.078769 0.010290 0.000000 0.000000 0.000000 -4.740224 4.574882 31.682104 -15.162298 -24.371621 -3.292630 -20.978162 -6.950203 -4.502720 0.000000 0.000000 0.000000 7.125000 0.000000 0.000000 4.263604 25.157958 2.052008
49.177468 16.506519 -8.005415 -9.819390 -84.823762 11.569295 0.000000 0.000000 0.000000 -17.190042 0.347245 -27.048605 5.154379 13.554987 41.484265 0.908346 -1.236142 -17.637580 1.282892 -7.177586 -20.242616 0.000000 0.000000 0.000000 22.064205 2.665311 -14.485344 -3.811568 -11.905308 35.397960 -2.623430 10.195891 -29.168137 -0.762546 -5.576483 15.560366 -0.885306 -1.303236 2.145993 0.612784 -1.888774 5.735916 1.084422 -1.052160 4.765588 -9.073858 -10.626961 3.681142 9.784256 -14.305366 -4.892678 4.418956 -7.257461 -0.673102 0.000000 0.000000 0.000000 2.186288 -4.926475 -30.900979 11.130148 -18.487505 1.817027 27.383370 -5.594238 -18.043951 0.000000 0.000000 0.000000 -7.125000 0.000000 0.000000 -0.673208 50.125416 0.085031 0.000000 0.000000 0.000000 -4.680574 4.732728 31.333860 -14.971010 -24.105717 -3.214049 -20.999693 -6.872676 -4.575451 0.000000 0.000000 0.000000 7.125000 0.000000 0.000000 4.246322 25.079616 2.051461
49.099328 16.516553 -7.978311 -8.606528 -85.378172 10.265021 0.000000 0.000000 0.000000 -17.127705 -0.300173 -26.160670 4.646047 12.972981 39.268732 0.883275 -0.994009 -17.453777 1.304823 -7.236206 -20.417063 0.000000 0.000000 0.000000 21.745743 2.481719 -14.008344 -3.752037 -11.822835 35.108268 -2.533243 9.990171 -28.647310 -0.678298 -5.265257 14.666847 -0.896904 -1.228422 1.917337 0.560271 -1.781870 5.684326 1.033997 -0.996451 4.836666 -9.041155 -10.594499 3.671364 9.834507 -14.250794 -5.098524 4.437965 -7.232771 -0.735730 0.000000 0.000000 0.000000 2.424972 -3.858681 -31.561984 11.703058 -19.357254 2.003191 26.772664 -7.851100 -17.824879 0.000000 0.000000 0.000000 -7.125000 0.000000 0.000000 -1.239344 49.782417 0.146063 0.000000 0.000000 0.000000 -4.746155 4.936638 31.376560 -14.960732 -24.091428 -3.209938 -20.981115 -6.948053 -4.596493 0.000000 0.000000 0.000000 7.125000 0.000000 0.000000 4.260023 25.057727 2.060223
49.016118 16.519949 -7.947181 -8.264732 -85.869589 9.783024 0.000000 0.000000 0.000000 -16.985507 -0.873984 -25.159506 4.223073 12.451296 37.348118 0.825201 -0.867146 -16.894986 1.342842 -7.336725 -20.716908 0.000000 0.000000 0.000000 21.509290 2.228106 -13.503390 -3.705681 -11.758077 34.881546 -2.466671 9.872963 -28.257854 -0.588854 -4.913218 13.661189 -0.859729 -1.200402 1.687967 0.540464 -1.741032 5.670617 0.988335 -0.973468 4.949549 -8.950800 -10.553418 3.681408 9.821131 -14.180797 -5.408727 4.436405 -7.200688 -0.842843 0.000000 0.000000 0.000000 2.695960 -2.710535 -32.688437 12.989062 -21.270662 2.449620 26.615405 -9.512763 -17.861415 0.000000 0.000000 0.000000 -7.125000 0.000000 0.000000 -1.402224 49.795936 0.165813 0.000000 0.000000 0.000000 -4.933512 5.109768 31.788487 -15.087393 -24.267682 -3.261778 -20.908395 -7.139735 -4.603261 0.000000 0.000000 0.000000 7.125000 0.000000 0.000000 4.314529 25.052887 2.087193
48.930322 16.518731 -7.911536 -9.513089 -86.324758 10.870861 0.000000 0.000000 0.000000 -16.788415 -1.279378 -24.158523 3.910161 12.039582 35.872619 0.712682 -0.537690 -15.775589 1.291021 -7.198958 -20.306391 0.000000 0.000000 0.000000 21.367818 1.957627 -12.978846 -3.664130 -11.699538 34.677179 -2.390492 10.216133 -27.810827 -0.608395 -4.992414 13.886901 -0.751889 -1.184896 1.445843 0.555721 -1.719921 5.663629 0.938477 -0.958117 5.076583 -8.748257 -10.513543 3.769559 9.705414 -14.113118 -5.774820 4.396658 -7.170510 -0.994480 0.000000 0.000000 0.000000 3.026645 -1.641286 -34.359467 14.933270 -24.049635 3.200722 27.094193 -10.635135 -18.414028 0.000000 0.000000 0.000000 -7.125000 0.000000 0.000000 -1.032281 50.481196 0.139128 0.000000 0.000000 0.000000 -5.197660 5.237920 32.352759 -15.290091 -24.548627 -3.345563 -20.824625 -7.362610 -4.624715 0.000000 0.000000 0.000000 7.125000 0.000000 0.000000 4.377109 25.032679 2.119710
48.843958 16.513296 -7.871026 -12.322838 -86.787553 13.502161 0.000000 0.000000 0.000000 -16.638518 -1.377490 -23.207789 3.702467 11.753612 34.865682 0.583968 -0.095252 -14.408338 1.120086 -6.722878 -18.896897 0.000000 0.000000 0.000000 21.279406 1.790033 -12.430974 -3.633553 -11.656053 34.525985 -2.312778 10.560724 -27.355524 -0.648594 -5.151604 14.341491 -0.619494 -1.149932 1.215972 0.602388 -1.674365 5.631829 0.909190 -0.929669 5.170428 -8.638377 -10.439975 4.009121 9.669828 -14.013784 -6.111183 4.401951 -7.127449 -1.151796 0.000000 0.000000 0.000000 3.392291 -0.795593 -36.263489 17.311414 -27.265767 4.229347 27.656856 -11.728275 -18.703775 0.000000 0.000000 0.000000 -7.125000 0.000000 0.000000 -0.522850 50.897196 0.076002 0.000000 0.000000 0.000000 -5.501620 5.357175 32.848515 -15.525612 -24.873234 -3.443972 -20.793674 -7.554571 -4.640581 0.000000 0.000000 0.000000 7.125000 0.000000 0.000000 4.400059 25.016762 2.132550
48.756153 16.505004 -7.825358 -16.879576 -87.238926 17.851804 0.000000 0.000000 0.000000 -16.601937 -1.153974 -22.251328 3.581686 11.581871 34.268425 0.525640 -0.010705 -13.696015 0.938048 -6.168057 -17.273109 0.000000 0.000000 0.000000 21.246500 1.873324 -11.808847 -3.619285 -11.635796 34.455425 -2.251314 10.577769 -26.985252 -0.690030 -5.310462 14.796190 -0.500660 -1.107195 0.990491 0.679606 -1.619884 5.590273 0.920064 -0.898062 5.252832 -8.650156 -10.346287 4.342489 9.697581 -13.900316 -6.372672 4.445571 -7.077743 -1.290007 0.000000 0.000000 0.000000 3.766172 -0.289462 -38.220592 20.102865 -30.759902 5.586841 28.025526 -12.801416 -18.677334 0.000000 0.000000 0.000000 -7.125000 0.000000 0.000000 -0.145237 50.933783 0.021236 0.000000 0.000000 0.000000 -5.819997 5.406485 33.161468 -15.738927 -25.165351 -3.534213 -20.880003 -7.749512 -4.699361 0.000000 0.000000 0.000000 7.125000 0.000000 0.000000 4.334446 24.951287 2.107132
48.666737 16.499178 -7.773803 -22.988229 -87.675686 23.733443 0.000000 0.000000 0.000000 -16.700565 -0.801465 -21.243588 3.479136 11.433009 33.754684 0.523606 0.028515 -13.684154 0.749346 -5.527763 -15.420523 0.000000 0.000000 0.000000 21.236281 2.215837 -11.095661 -3.613027 -11.626805 34.424318 -2.226039 10.161608 -26.818369 -0.696791 -5.336037 14.869489 -0.413436 -1.072135 0.761113 0.763220 -1.576064 5.549273 0.954928 -0.873406 5.339626 -8.675471 -10.238723 4.602817 9.653127 -13.773392 -6.453159 4.458334 -7.016410 -1.368927 0.000000 0.000000 0.000000 4.154734 -0.134678 -40.217020 23.376025 -34.492770 7.352210 28.432359 -13.718908 -18.770594 0.000000 0.000000 0.000000 -7.125000 0.000000 0.000000 0.250055 51.109742 -0.037720 0.000000 0.000000 0.000000 -6.117755 5.323662 33.256342 -15.877774 -25.354612 -3.593472 -21.025242 -7.926910 -4.777706 0.000000 0.000000 0.000000 7.125000 0.000000 0.000000 4.224516 24.862802 2.062105
